<mxfile host="app.diagrams.net" modified="2024-06-13T01:07:37.808Z" agent="Mozilla/5.0 (Windows NT 10.0; Win64; x64; rv:123.0) Gecko/20100101 Firefox/123.0" etag="eVOgYyLWuE8mYF7FKnbF" version="21.5.2" type="github">
  <diagram name="Page-1" id="kazDktDfz-iIFuVTxDjJ">
    <mxGraphModel dx="478" dy="792" grid="1" gridSize="10" guides="1" tooltips="1" connect="1" arrows="1" fold="1" page="1" pageScale="1" pageWidth="827" pageHeight="1169" math="0" shadow="0">
      <root>
        <mxCell id="0" />
        <mxCell id="1" parent="0" />
        <mxCell id="dvgGFcpFj6azqrUW-kFa-3" value="" style="edgeStyle=orthogonalEdgeStyle;rounded=0;orthogonalLoop=1;jettySize=auto;html=1;" parent="1" source="dvgGFcpFj6azqrUW-kFa-1" target="dvgGFcpFj6azqrUW-kFa-2" edge="1">
          <mxGeometry relative="1" as="geometry" />
        </mxCell>
        <mxCell id="dvgGFcpFj6azqrUW-kFa-1" value="" style="ellipse;whiteSpace=wrap;html=1;aspect=fixed;" parent="1" vertex="1">
          <mxGeometry x="150" y="290" width="80" height="80" as="geometry" />
        </mxCell>
        <mxCell id="dvgGFcpFj6azqrUW-kFa-5" value="" style="edgeStyle=orthogonalEdgeStyle;rounded=0;orthogonalLoop=1;jettySize=auto;html=1;" parent="1" source="dvgGFcpFj6azqrUW-kFa-2" target="dvgGFcpFj6azqrUW-kFa-4" edge="1">
          <mxGeometry relative="1" as="geometry" />
        </mxCell>
        <mxCell id="dvgGFcpFj6azqrUW-kFa-11" value="" style="edgeStyle=orthogonalEdgeStyle;rounded=0;orthogonalLoop=1;jettySize=auto;html=1;" parent="1" source="dvgGFcpFj6azqrUW-kFa-2" target="dvgGFcpFj6azqrUW-kFa-10" edge="1">
          <mxGeometry relative="1" as="geometry" />
        </mxCell>
        <mxCell id="dvgGFcpFj6azqrUW-kFa-2" value="Авторизован" style="whiteSpace=wrap;html=1;" parent="1" vertex="1">
          <mxGeometry x="130" y="460" width="120" height="60" as="geometry" />
        </mxCell>
        <mxCell id="dvgGFcpFj6azqrUW-kFa-7" value="" style="edgeStyle=orthogonalEdgeStyle;rounded=0;orthogonalLoop=1;jettySize=auto;html=1;" parent="1" source="dvgGFcpFj6azqrUW-kFa-4" target="dvgGFcpFj6azqrUW-kFa-6" edge="1">
          <mxGeometry relative="1" as="geometry" />
        </mxCell>
        <mxCell id="dvgGFcpFj6azqrUW-kFa-13" value="" style="edgeStyle=orthogonalEdgeStyle;rounded=0;orthogonalLoop=1;jettySize=auto;html=1;" parent="1" source="dvgGFcpFj6azqrUW-kFa-4" target="dvgGFcpFj6azqrUW-kFa-12" edge="1">
          <mxGeometry relative="1" as="geometry" />
        </mxCell>
        <mxCell id="dvgGFcpFj6azqrUW-kFa-4" value="Есть в друзьях" style="whiteSpace=wrap;html=1;" parent="1" vertex="1">
          <mxGeometry x="130" y="600" width="120" height="60" as="geometry" />
        </mxCell>
        <mxCell id="dvgGFcpFj6azqrUW-kFa-9" value="" style="edgeStyle=orthogonalEdgeStyle;rounded=0;orthogonalLoop=1;jettySize=auto;html=1;" parent="1" source="dvgGFcpFj6azqrUW-kFa-6" target="dvgGFcpFj6azqrUW-kFa-8" edge="1">
          <mxGeometry relative="1" as="geometry" />
        </mxCell>
        <mxCell id="dvgGFcpFj6azqrUW-kFa-15" value="" style="edgeStyle=orthogonalEdgeStyle;rounded=0;orthogonalLoop=1;jettySize=auto;html=1;" parent="1" source="dvgGFcpFj6azqrUW-kFa-6" target="dvgGFcpFj6azqrUW-kFa-14" edge="1">
          <mxGeometry relative="1" as="geometry" />
        </mxCell>
        <mxCell id="dvgGFcpFj6azqrUW-kFa-6" value="Находится в чате" style="whiteSpace=wrap;html=1;" parent="1" vertex="1">
          <mxGeometry x="130" y="740" width="120" height="60" as="geometry" />
        </mxCell>
        <mxCell id="dvgGFcpFj6azqrUW-kFa-20" value="" style="edgeStyle=orthogonalEdgeStyle;rounded=0;orthogonalLoop=1;jettySize=auto;html=1;" parent="1" source="dvgGFcpFj6azqrUW-kFa-8" target="dvgGFcpFj6azqrUW-kFa-19" edge="1">
          <mxGeometry relative="1" as="geometry" />
        </mxCell>
        <mxCell id="dvgGFcpFj6azqrUW-kFa-8" value="Отправка сообщения" style="whiteSpace=wrap;html=1;" parent="1" vertex="1">
          <mxGeometry x="130" y="880" width="120" height="60" as="geometry" />
        </mxCell>
        <mxCell id="dvgGFcpFj6azqrUW-kFa-18" style="edgeStyle=orthogonalEdgeStyle;rounded=0;orthogonalLoop=1;jettySize=auto;html=1;endArrow=none;endFill=0;" parent="1" source="dvgGFcpFj6azqrUW-kFa-10" edge="1">
          <mxGeometry relative="1" as="geometry">
            <mxPoint x="190" y="400" as="targetPoint" />
            <Array as="points">
              <mxPoint x="390" y="410" />
              <mxPoint x="191" y="410" />
            </Array>
          </mxGeometry>
        </mxCell>
        <mxCell id="dvgGFcpFj6azqrUW-kFa-10" value="Вывод ошибки об авториации" style="whiteSpace=wrap;html=1;" parent="1" vertex="1">
          <mxGeometry x="330" y="460" width="120" height="60" as="geometry" />
        </mxCell>
        <mxCell id="dvgGFcpFj6azqrUW-kFa-17" style="edgeStyle=orthogonalEdgeStyle;rounded=0;orthogonalLoop=1;jettySize=auto;html=1;" parent="1" source="dvgGFcpFj6azqrUW-kFa-12" target="dvgGFcpFj6azqrUW-kFa-6" edge="1">
          <mxGeometry relative="1" as="geometry">
            <mxPoint x="190" y="700" as="targetPoint" />
            <Array as="points">
              <mxPoint x="390" y="690" />
              <mxPoint x="191" y="690" />
            </Array>
          </mxGeometry>
        </mxCell>
        <mxCell id="dvgGFcpFj6azqrUW-kFa-12" value="Добавление в друзья" style="whiteSpace=wrap;html=1;" parent="1" vertex="1">
          <mxGeometry x="330" y="600" width="120" height="60" as="geometry" />
        </mxCell>
        <mxCell id="dvgGFcpFj6azqrUW-kFa-16" style="edgeStyle=orthogonalEdgeStyle;rounded=0;orthogonalLoop=1;jettySize=auto;html=1;" parent="1" source="dvgGFcpFj6azqrUW-kFa-14" target="dvgGFcpFj6azqrUW-kFa-8" edge="1">
          <mxGeometry relative="1" as="geometry">
            <Array as="points">
              <mxPoint x="390" y="910" />
            </Array>
          </mxGeometry>
        </mxCell>
        <mxCell id="dvgGFcpFj6azqrUW-kFa-14" value="Добавление&amp;nbsp; в чат" style="whiteSpace=wrap;html=1;" parent="1" vertex="1">
          <mxGeometry x="330" y="740" width="120" height="60" as="geometry" />
        </mxCell>
        <mxCell id="dvgGFcpFj6azqrUW-kFa-19" value="" style="ellipse;whiteSpace=wrap;html=1;fillColor=#FFFFFF;strokeColor=#050505;" parent="1" vertex="1">
          <mxGeometry x="150" y="1010" width="80" height="80" as="geometry" />
        </mxCell>
        <mxCell id="dvgGFcpFj6azqrUW-kFa-21" value="" style="ellipse;whiteSpace=wrap;html=1;aspect=fixed;" parent="1" vertex="1">
          <mxGeometry x="155" y="1015" width="70" height="70" as="geometry" />
        </mxCell>
      </root>
    </mxGraphModel>
  </diagram>
</mxfile>
